PathFileType	4	(X/Y/Z)	s06c0402.trc
DataRate	CameraRate	NumFrames	NumMarkers	Units	OrigDataRate	OrigDataStartFrame	OrigNumFrames
200	200	6	48	mm	200	250	2000
Frame#	Time	racr			lacr			c7			jug			rlel			rdr			llel			ldr			s2			lic			ric			lasi			rasi			rpsi			lpsi			rgt			lgt			rth1			rth2			rth3			rth4			rlfc			rmfc			rsh1			rsh2			rsh3			rsh4			rlmal			rcal			rtoe			rmt5			lth1			lth2			lth4			lth3			llfc			lmfc			llmal			lcal			lmt5			lsh1			lsh2			lsh3			lsh4			ltoe			SBIKE			LBIKE			RBIKE			
		X1	Y1	Z1	X2	Y2	Z2	X3	Y3	Z3	X4	Y4	Z4	X5	Y5	Z5	X6	Y6	Z6	X7	Y7	Z7	X8	Y8	Z8	X9	Y9	Z9	X10	Y10	Z10	X11	Y11	Z11	X12	Y12	Z12	X13	Y13	Z13	X14	Y14	Z14	X15	Y15	Z15	X16	Y16	Z16	X17	Y17	Z17	X18	Y18	Z18	X19	Y19	Z19	X20	Y20	Z20	X21	Y21	Z21	X22	Y22	Z22	X23	Y23	Z23	X24	Y24	Z24	X25	Y25	Z25	X26	Y26	Z26	X27	Y27	Z27	X28	Y28	Z28	X29	Y29	Z29	X30	Y30	Z30	X31	Y31	Z31	X32	Y32	Z32	X33	Y33	Z33	X34	Y34	Z34	X35	Y35	Z35	X36	Y36	Z36	X37	Y37	Z37	X38	Y38	Z38	X39	Y39	Z39	X40	Y40	Z40	X41	Y41	Z41	X42	Y42	Z42	X43	Y43	Z43	X44	Y44	Z44	X45	Y45	Z45	X46	Y46	Z46	X47	Y47	Z47	X48	Y48	Z48	
250	1.2500	460.636264	1347.180066	-68.796754	476.846694	1352.408469	-371.050448	434.590139	1423.814855	-219.610515	477.618030	1274.677088	-211.377968	481.245262	1089.926061	37.368824	679.944896	955.334524	-42.346624	470.010413	1085.956505	-472.642139	667.536263	945.887221	-422.112657	-57.460410	1142.309946	-231.649072	124.956999	1088.169844	-385.806348	95.751262	1109.781566	-55.106866	135.293538	1027.480386	-357.743225	106.600091	1051.844820	-80.983374	-20.168535	1175.924920	-200.376688	-15.868671	1173.389120	-260.328051	51.463631	1061.295546	-20.335274	70.639835	1015.370787	-421.137645	155.160948	998.307591	-15.194107	243.204198	977.467170	-19.878226	306.491179	918.645477	-22.872659	256.577724	1007.294938	-40.183464	375.319490	836.603581	-47.527056	375.860815	810.960564	-156.785987	340.345073	718.360743	-22.586343	335.613875	632.831684	-42.246111	291.417294	558.177674	-46.483723	359.562130	629.927496	-74.284405	261.935849	478.861236	-51.525264	199.684006	452.401763	-104.036312	472.033826	409.448797	-100.767259	373.253647	397.416195	-31.390373	108.248976	896.574030	-429.463112	173.131087	839.123798	-418.834665	202.415543	859.318064	-406.115939	200.205154	754.458450	-407.781628	221.744873	645.395688	-377.266197	214.561572	632.533721	-260.601831	-19.623334	362.133521	-379.569297	-101.298612	353.719533	-333.819643	74.308029	261.559884	-400.110279	157.894156	561.148484	-402.529583	118.047699	485.972274	-383.007867	45.569551	434.631123	-386.101748	135.931393	474.342593	-349.266188	157.613520	244.199427	-340.212448	-204.015502	865.954083	-215.203148	-49.247483	79.803604	-414.677751	-49.114074	79.853222	-17.244167	
251	1.2550	463.221428	1344.192694	-68.486091	480.549697	1348.568846	-370.027381	438.158923	1420.705917	-219.371510	480.100383	1271.007794	-210.741479	481.944849	1087.893463	38.564619	679.348956	954.974312	-43.181030	468.841000	1083.223131	-473.433131	666.607027	945.767933	-421.767317	-56.656399	1143.250830	-231.664696	125.371591	1087.802011	-386.285894	96.407707	1109.756884	-54.828521	134.980195	1026.703126	-358.479414	106.713801	1051.651180	-80.547513	-18.853685	1176.639017	-200.365889	-14.804747	1173.928536	-259.889805	51.843227	1062.068867	-20.188290	70.160458	1015.746684	-421.456916	155.239871	998.413435	-15.876788	243.063336	976.852574	-20.504092	306.096733	917.761155	-23.224989	256.819326	1006.999677	-40.424925	373.997338	835.294426	-47.851742	375.164085	809.766326	-157.026426	339.125745	717.401775	-22.737234	334.667877	631.754462	-42.155789	290.658354	557.125698	-46.505552	358.740626	628.790341	-74.218207	261.336965	477.531285	-51.543132	199.238010	450.566807	-104.032795	471.822918	409.596639	-100.753588	373.137762	396.878760	-31.285640	107.541644	896.950034	-429.850984	172.282770	839.387595	-419.249327	201.707861	859.538243	-406.650484	199.261342	754.731884	-408.282524	220.854334	645.610349	-377.815508	213.577956	632.966393	-261.188370	-20.587584	362.352437	-379.497797	-102.126296	353.480796	-333.663805	73.814274	262.090298	-400.059567	157.075273	561.214163	-402.944103	117.157045	486.141379	-383.211552	44.634734	434.842398	-386.193121	135.057224	474.652273	-349.517655	157.213978	245.170278	-340.228265	-204.015907	865.952636	-215.152518	-49.236286	79.860283	-414.709011	-49.116246	79.879559	-17.242531	
252	1.2600	465.736169	1341.204670	-68.106357	484.511035	1344.364964	-369.102160	441.727575	1417.322024	-219.076728	482.688876	1267.095935	-210.069461	482.743990	1085.614030	39.905979	678.823711	954.633666	-43.804515	467.786177	1080.331601	-474.304855	665.817455	945.401716	-421.212420	-55.722377	1144.320641	-231.470713	126.075863	1087.310422	-386.763183	97.175761	1109.801389	-54.626106	134.833588	1025.931504	-359.250079	107.005659	1051.577236	-80.263719	-17.444895	1177.436863	-200.268815	-13.528608	1174.662180	-260.011761	52.463861	1062.823788	-20.159989	69.732558	1016.177562	-421.850492	155.486277	998.730704	-16.278727	243.122114	976.553254	-20.821778	305.441579	916.520928	-23.798059	257.116189	1006.521798	-40.660275	373.165182	834.301141	-47.863793	374.245112	808.880380	-158.145379	337.961061	716.150606	-22.872494	333.656004	630.447858	-42.194884	289.782987	555.763808	-46.592285	357.855105	627.572891	-74.198049	260.591171	476.113350	-51.710602	198.601292	448.626631	-104.111186	471.589913	409.813477	-100.657910	372.918717	396.272315	-31.200120	106.629826	897.301535	-429.936539	171.416271	839.662588	-419.789579	200.887533	859.725270	-407.387554	198.326976	754.918083	-408.705541	219.757638	645.788035	-378.455130	212.573080	633.338032	-261.707524	-21.589214	362.572002	-379.346097	-103.171032	353.221836	-333.390984	73.242191	262.866724	-400.020195	156.041517	561.331403	-403.524749	116.059352	486.392080	-383.431382	43.563044	435.062910	-386.303828	133.937989	474.930325	-349.739728	156.856777	246.313560	-340.305836	-204.013718	865.928327	-215.142019	-49.232454	79.858030	-414.707765	-49.114178	79.858373	-17.242483	
253	1.2650	468.298999	1337.990677	-67.679521	488.571027	1339.865794	-368.128040	445.294481	1413.678222	-218.771794	485.337509	1263.044872	-209.426294	483.610933	1083.199989	41.372887	678.344180	954.369336	-44.273091	466.860964	1077.352366	-475.304544	665.057312	944.945408	-420.828848	-54.720816	1145.492298	-231.492535	126.923765	1086.828290	-387.210273	97.864375	1109.844513	-54.207667	134.896306	1025.108299	-360.039750	107.604050	1051.603674	-79.841563	-15.907996	1178.077048	-200.495901	-12.013778	1175.220697	-260.544337	53.430886	1063.598480	-20.400774	69.463956	1016.565190	-422.278335	155.812902	999.019155	-16.730514	243.257336	976.154492	-21.159480	305.211437	915.435007	-24.864514	257.522455	1005.919635	-40.976698	372.291261	832.913650	-48.044855	373.039646	807.388353	-158.379571	336.904205	714.634456	-23.022619	332.688638	628.872742	-42.327326	288.950502	554.158283	-46.726019	356.915204	626.074107	-74.332797	259.799243	474.486821	-51.805554	197.972263	446.372373	-104.164648	471.251470	410.175082	-100.596645	372.637405	395.727634	-31.096722	105.863067	897.578867	-430.346635	170.564362	839.790035	-420.393259	200.134114	859.843405	-408.049600	197.274253	755.013436	-409.283755	218.629221	645.987876	-379.094783	211.458589	633.673730	-262.323485	-22.689192	362.670200	-379.230890	-104.194336	352.745658	-333.187724	72.710908	263.425996	-399.860817	154.829846	561.507428	-404.098521	114.860121	486.671215	-383.774078	42.430033	435.242333	-386.577478	132.978537	475.683490	-350.659212	156.456597	247.355016	-340.365576	-203.985702	865.929575	-215.066017	-49.232190	79.860355	-414.704095	-49.113915	79.855443	-17.247062	
254	1.2700	470.882109	1334.658826	-67.234259	492.770302	1334.878603	-366.725111	448.871507	1409.656272	-218.330160	488.051015	1258.713248	-208.775175	484.272619	1080.491632	43.046931	677.958238	954.113552	-44.540274	466.134800	1074.306819	-476.294810	664.420537	944.514395	-420.711194	-53.508753	1146.611532	-231.666281	127.995436	1086.319396	-387.648010	98.819854	1109.790192	-54.549442	135.171373	1024.248117	-360.852844	107.663391	1051.292086	-79.921298	-14.294142	1178.778181	-200.609610	-10.533870	1175.977966	-260.684118	54.386389	1064.716377	-20.573916	69.347280	1016.936526	-422.748502	156.140379	999.478314	-16.609326	243.482334	975.662366	-21.513342	304.673790	914.071211	-25.501915	257.919913	1005.195267	-41.306588	371.381410	831.429358	-48.207459	371.763205	805.656262	-158.737065	335.799526	712.862845	-23.206215	331.752491	627.162831	-42.499310	287.945757	552.403543	-46.900992	355.854537	624.385714	-74.525804	258.859460	472.615046	-52.285641	196.973882	444.081963	-104.198685	470.662535	410.857658	-100.438995	372.242922	395.281039	-30.971669	105.146862	897.873232	-430.890627	169.742190	839.934074	-421.132159	199.383837	859.910459	-408.827044	196.263598	755.051965	-409.923047	217.490463	646.249167	-379.839496	210.280900	634.015648	-263.019471	-23.855593	362.512131	-378.887940	-105.210710	352.162767	-332.809860	72.172746	263.827946	-399.820818	153.605171	561.713943	-404.705569	113.595848	486.916563	-384.190525	41.047963	435.600097	-386.643958	131.559199	475.605835	-350.532911	156.127992	248.308145	-340.442932	-203.961647	865.931738	-215.057261	-49.247130	79.852426	-414.695970	-49.122513	79.844067	-17.237263	
255	1.2750	473.535169	1331.195405	-66.994286	496.965927	1329.721778	-365.769395	452.477096	1405.458461	-217.847513	490.840754	1254.129130	-208.166074	484.792216	1077.617205	44.849874	677.513842	953.751277	-44.744826	465.664641	1071.210393	-477.685359	663.826532	944.053045	-420.654730	-52.309554	1148.028833	-231.110437	129.142222	1085.787622	-388.017738	99.707098	1109.736422	-54.604242	135.637086	1023.516859	-361.505543	108.027484	1051.153306	-79.956557	-12.677744	1179.686326	-200.676465	-8.885908	1176.773975	-261.088086	55.683227	1065.612389	-20.889712	69.389735	1017.301829	-423.223856	156.450480	999.411798	-17.511404	243.648162	974.873095	-21.943202	304.196765	912.658648	-26.120966	258.490761	1004.124929	-41.669145	370.321952	829.472971	-48.265015	370.427932	803.721303	-159.136127	334.746840	710.862473	-23.377643	330.635474	625.198010	-42.667988	286.928860	550.456405	-47.065249	354.672033	622.489218	-74.813866	257.574279	470.737096	-52.428068	195.771940	441.262312	-104.163084	469.929405	411.543442	-100.311534	371.691886	394.722322	-30.877138	104.465038	898.173662	-431.529933	168.966652	840.056462	-421.918324	198.627374	859.961000	-409.595721	195.259466	755.108646	-410.651478	216.245794	646.664633	-380.895418	209.111214	634.262720	-263.666251	-24.996899	362.374843	-378.700704	-106.194493	351.534658	-332.400511	71.589288	264.394928	-399.809025	152.248155	561.913005	-405.380397	112.311808	487.091432	-384.684565	39.744335	435.717614	-386.885626	130.339520	475.689905	-351.009482	155.769503	249.249976	-340.548520	-203.965544	865.927121	-215.048947	-49.260541	79.848301	-414.691911	-49.127680	79.832759	-17.229767	
